<?xml version="1.0" encoding="UTF-8"?>
<svg version="1.1" xmlns="http://www.w3.org/2000/svg" width="246" height="236">
<path d="M0 0 C81.18 0 162.36 0 246 0 C246 77.88 246 155.76 246 236 C164.82 236 83.64 236 0 236 C0 158.12 0 80.24 0 0 Z " fill="#F1F1F3" transform="translate(0,0)"/>
<path d="M0 0 C5.45560801 2.31733445 9.38106107 5.96436689 11.86328125 11.37109375 C12.99179651 16.94871951 12.59365687 21.80934639 9.80078125 26.80859375 C7.05965094 30.62268078 4.11320798 32.44659862 -0.13671875 34.37109375 C-0.79671875 34.37109375 -1.45671875 34.37109375 -2.13671875 34.37109375 C-2.13671875 38.33109375 -2.13671875 42.29109375 -2.13671875 46.37109375 C-0.94183838 46.35014648 0.25304199 46.32919922 1.48413086 46.30761719 C5.95129232 46.23477763 10.41840213 46.18913525 14.88598633 46.15136719 C16.8131597 46.13135132 18.74027311 46.10412992 20.66723633 46.06933594 C23.45018377 46.02037334 26.23232281 45.99802458 29.015625 45.98046875 C29.86599838 45.95982361 30.71637177 45.93917847 31.59251404 45.91790771 C41.90341761 45.91410952 51.03046961 51.10701431 58.5859375 57.92578125 C64.2838168 64.01712025 68.16386908 71.64860381 68.17578125 80.05859375 C68.09744555 81.49773254 68.00330362 82.9366424 67.86328125 84.37109375 C68.50394531 84.3246875 69.14460937 84.27828125 69.8046875 84.23046875 C76.13234529 83.96642342 79.75677666 84.54121531 84.86328125 88.37109375 C87.57547538 92.114126 87.18675521 96.42958914 87.19921875 100.86328125 C87.20920395 102.09862106 87.20920395 102.09862106 87.21939087 103.35891724 C87.22950128 105.09879325 87.23420839 106.83870792 87.23388672 108.57861328 C87.23825498 111.23014783 87.2745759 113.88001032 87.3125 116.53125 C87.31836965 118.22525475 87.32233805 119.91926737 87.32421875 121.61328125 C87.33858978 122.40096893 87.35296082 123.18865662 87.36776733 124.00021362 C87.32462613 129.2404929 86.33871103 132.22117431 82.86328125 136.37109375 C79.33649026 138.72228774 77.8344864 138.58552827 73.67578125 138.49609375 C72.58910156 138.47804687 71.50242188 138.46 70.3828125 138.44140625 C69.55136719 138.41820312 68.71992188 138.395 67.86328125 138.37109375 C67.95029297 139.38816406 67.95029297 139.38816406 68.0390625 140.42578125 C68.54008172 150.76109194 65.10380381 157.04155084 58.42578125 164.74609375 C51.98962133 171.49930589 46.02767717 174.67207653 36.86328125 176.37109375 C34.86382693 176.41780997 32.86241676 176.42989185 30.86328125 176.37109375 C30.88648438 177.57507813 30.9096875 178.7790625 30.93359375 180.01953125 C30.95234988 181.5950459 30.97055024 183.17056723 30.98828125 184.74609375 C31.00503906 185.54015625 31.02179688 186.33421875 31.0390625 187.15234375 C31.05663598 189.2260139 30.96663293 191.29992616 30.86328125 193.37109375 C30.20328125 194.03109375 29.54328125 194.69109375 28.86328125 195.37109375 C25.32756696 194.83537946 25.32756696 194.83537946 23.86328125 193.37109375 C23.86328125 187.76109375 23.86328125 182.15109375 23.86328125 176.37109375 C4.39328125 176.37109375 -15.07671875 176.37109375 -35.13671875 176.37109375 C-35.13671875 181.98109375 -35.13671875 187.59109375 -35.13671875 193.37109375 C-35.79671875 194.03109375 -36.45671875 194.69109375 -37.13671875 195.37109375 C-38.78671875 195.04109375 -40.43671875 194.71109375 -42.13671875 194.37109375 C-42.13671875 188.43109375 -42.13671875 182.49109375 -42.13671875 176.37109375 C-45.10671875 176.37109375 -48.07671875 176.37109375 -51.13671875 176.37109375 C-60.93824434 174.50475799 -68.04769722 168.69613421 -74.0234375 160.9140625 C-78.64300355 153.81133987 -80.28562014 146.78402204 -80.13671875 138.37109375 C-81.34908203 138.45810547 -81.34908203 138.45810547 -82.5859375 138.546875 C-91.39650347 138.91885306 -91.39650347 138.91885306 -95.26171875 136.05859375 C-98.73806414 131.07583203 -99.47889727 127.99511429 -99.54296875 122.01171875 C-99.5543689 121.1891156 -99.56576904 120.36651245 -99.57751465 119.51898193 C-99.59640279 117.77735527 -99.60947797 116.03565733 -99.6171875 114.29394531 C-99.63655215 111.64389271 -99.6985692 108.99697719 -99.76171875 106.34765625 C-99.77478506 104.6523621 -99.78528356 102.95704583 -99.79296875 101.26171875 C-99.81766235 100.4760553 -99.84235596 99.69039185 -99.86779785 98.88092041 C-99.8240344 93.40828628 -98.37375218 90.65382465 -94.62145996 86.68743896 C-91.65554667 84.05791286 -89.36790388 84.26375439 -85.51171875 84.30859375 C-84.00738281 84.32212891 -84.00738281 84.32212891 -82.47265625 84.3359375 C-81.70179687 84.34753906 -80.9309375 84.35914062 -80.13671875 84.37109375 C-80.20632812 83.7884375 -80.2759375 83.20578125 -80.34765625 82.60546875 C-80.97818566 73.05745202 -76.81892701 65.48362917 -71.07421875 58.05859375 C-65.50862686 52.09367689 -56.43554264 46.74990568 -48.137146 46.25083923 C-47.43543274 46.25305984 -46.73371948 46.25528046 -46.01074219 46.25756836 C-45.21021423 46.25764389 -44.40968628 46.25771942 -43.5848999 46.25779724 C-42.30344086 46.26553917 -42.30344086 46.26553917 -40.99609375 46.2734375 C-40.11391174 46.27485245 -39.23172974 46.2762674 -38.32281494 46.27772522 C-35.5107481 46.28331374 -32.69876145 46.29586414 -29.88671875 46.30859375 C-27.97786573 46.31361023 -26.06901147 46.31817288 -24.16015625 46.32226562 C-19.48564628 46.33327941 -14.8111961 46.35053617 -10.13671875 46.37109375 C-10.13671875 42.41109375 -10.13671875 38.45109375 -10.13671875 34.37109375 C-11.78671875 34.04109375 -13.43671875 33.71109375 -15.13671875 33.37109375 C-16.8671875 32.1015625 -16.8671875 32.1015625 -18.32421875 30.55859375 C-19.05705078 29.80642578 -19.05705078 29.80642578 -19.8046875 29.0390625 C-24.27887468 23.43648794 -23.80701986 17.26316416 -23.13671875 10.37109375 C-19.0879978 0.9240782 -9.58802752 -2.82207026 0 0 Z " fill="#EFEFF1" transform="translate(128.13671875,19.62890625)"/>
<path d="M0 0 C5.45560801 2.31733445 9.38106107 5.96436689 11.86328125 11.37109375 C12.99179651 16.94871951 12.59365687 21.80934639 9.80078125 26.80859375 C7.05965094 30.62268078 4.11320798 32.44659862 -0.13671875 34.37109375 C-0.79671875 34.37109375 -1.45671875 34.37109375 -2.13671875 34.37109375 C-2.13671875 38.33109375 -2.13671875 42.29109375 -2.13671875 46.37109375 C-0.94183838 46.35014648 0.25304199 46.32919922 1.48413086 46.30761719 C5.95129232 46.23477763 10.41840213 46.18913525 14.88598633 46.15136719 C16.8131597 46.13135132 18.74027311 46.10412992 20.66723633 46.06933594 C23.45018377 46.02037334 26.23232281 45.99802458 29.015625 45.98046875 C29.86599838 45.95982361 30.71637177 45.93917847 31.59251404 45.91790771 C41.90341761 45.91410952 51.03046961 51.10701431 58.5859375 57.92578125 C64.2838168 64.01712025 68.16386908 71.64860381 68.17578125 80.05859375 C68.09744555 81.49773254 68.00330362 82.9366424 67.86328125 84.37109375 C68.50394531 84.3246875 69.14460937 84.27828125 69.8046875 84.23046875 C76.13234529 83.96642342 79.75677666 84.54121531 84.86328125 88.37109375 C87.57547538 92.114126 87.18675521 96.42958914 87.19921875 100.86328125 C87.20920395 102.09862106 87.20920395 102.09862106 87.21939087 103.35891724 C87.22950128 105.09879325 87.23420839 106.83870792 87.23388672 108.57861328 C87.23825498 111.23014783 87.2745759 113.88001032 87.3125 116.53125 C87.31836965 118.22525475 87.32233805 119.91926737 87.32421875 121.61328125 C87.33858978 122.40096893 87.35296082 123.18865662 87.36776733 124.00021362 C87.32462613 129.2404929 86.33871103 132.22117431 82.86328125 136.37109375 C79.33649026 138.72228774 77.8344864 138.58552827 73.67578125 138.49609375 C72.58910156 138.47804687 71.50242188 138.46 70.3828125 138.44140625 C69.55136719 138.41820312 68.71992188 138.395 67.86328125 138.37109375 C67.95029297 139.38816406 67.95029297 139.38816406 68.0390625 140.42578125 C68.54008172 150.76109194 65.10380381 157.04155084 58.42578125 164.74609375 C51.98962133 171.49930589 46.02767717 174.67207653 36.86328125 176.37109375 C34.86382693 176.41780997 32.86241676 176.42989185 30.86328125 176.37109375 C30.88648438 177.57507813 30.9096875 178.7790625 30.93359375 180.01953125 C30.95234988 181.5950459 30.97055024 183.17056723 30.98828125 184.74609375 C31.00503906 185.54015625 31.02179688 186.33421875 31.0390625 187.15234375 C31.05663598 189.2260139 30.96663293 191.29992616 30.86328125 193.37109375 C30.20328125 194.03109375 29.54328125 194.69109375 28.86328125 195.37109375 C25.32756696 194.83537946 25.32756696 194.83537946 23.86328125 193.37109375 C23.86328125 187.76109375 23.86328125 182.15109375 23.86328125 176.37109375 C4.39328125 176.37109375 -15.07671875 176.37109375 -35.13671875 176.37109375 C-35.13671875 181.98109375 -35.13671875 187.59109375 -35.13671875 193.37109375 C-35.79671875 194.03109375 -36.45671875 194.69109375 -37.13671875 195.37109375 C-38.78671875 195.04109375 -40.43671875 194.71109375 -42.13671875 194.37109375 C-42.13671875 188.43109375 -42.13671875 182.49109375 -42.13671875 176.37109375 C-45.10671875 176.37109375 -48.07671875 176.37109375 -51.13671875 176.37109375 C-60.93824434 174.50475799 -68.04769722 168.69613421 -74.0234375 160.9140625 C-78.64300355 153.81133987 -80.28562014 146.78402204 -80.13671875 138.37109375 C-81.34908203 138.45810547 -81.34908203 138.45810547 -82.5859375 138.546875 C-91.39650347 138.91885306 -91.39650347 138.91885306 -95.26171875 136.05859375 C-98.73806414 131.07583203 -99.47889727 127.99511429 -99.54296875 122.01171875 C-99.5543689 121.1891156 -99.56576904 120.36651245 -99.57751465 119.51898193 C-99.59640279 117.77735527 -99.60947797 116.03565733 -99.6171875 114.29394531 C-99.63655215 111.64389271 -99.6985692 108.99697719 -99.76171875 106.34765625 C-99.77478506 104.6523621 -99.78528356 102.95704583 -99.79296875 101.26171875 C-99.81766235 100.4760553 -99.84235596 99.69039185 -99.86779785 98.88092041 C-99.8240344 93.40828628 -98.37375218 90.65382465 -94.62145996 86.68743896 C-91.65554667 84.05791286 -89.36790388 84.26375439 -85.51171875 84.30859375 C-84.00738281 84.32212891 -84.00738281 84.32212891 -82.47265625 84.3359375 C-81.70179687 84.34753906 -80.9309375 84.35914062 -80.13671875 84.37109375 C-80.20632812 83.7884375 -80.2759375 83.20578125 -80.34765625 82.60546875 C-80.97818566 73.05745202 -76.81892701 65.48362917 -71.07421875 58.05859375 C-65.50862686 52.09367689 -56.43554264 46.74990568 -48.137146 46.25083923 C-47.43543274 46.25305984 -46.73371948 46.25528046 -46.01074219 46.25756836 C-45.21021423 46.25764389 -44.40968628 46.25771942 -43.5848999 46.25779724 C-42.30344086 46.26553917 -42.30344086 46.26553917 -40.99609375 46.2734375 C-40.11391174 46.27485245 -39.23172974 46.2762674 -38.32281494 46.27772522 C-35.5107481 46.28331374 -32.69876145 46.29586414 -29.88671875 46.30859375 C-27.97786573 46.31361023 -26.06901147 46.31817288 -24.16015625 46.32226562 C-19.48564628 46.33327941 -14.8111961 46.35053617 -10.13671875 46.37109375 C-10.13671875 42.41109375 -10.13671875 38.45109375 -10.13671875 34.37109375 C-11.78671875 34.04109375 -13.43671875 33.71109375 -15.13671875 33.37109375 C-16.8671875 32.1015625 -16.8671875 32.1015625 -18.32421875 30.55859375 C-19.05705078 29.80642578 -19.05705078 29.80642578 -19.8046875 29.0390625 C-24.27887468 23.43648794 -23.80701986 17.26316416 -23.13671875 10.37109375 C-19.0879978 0.9240782 -9.58802752 -2.82207026 0 0 Z M-68.51171875 65.74609375 C-73.74107959 74.1935228 -73.59641083 83.13558852 -73.5703125 92.7734375 C-73.57488376 94.26119726 -73.58019211 95.74895493 -73.5861969 97.23670959 C-73.59508923 100.34238305 -73.59274948 103.44779881 -73.58276367 106.5534668 C-73.57127778 110.50857885 -73.59149858 114.4627975 -73.62068081 118.41779232 C-73.63913756 121.48671499 -73.63873169 124.55542724 -73.63304329 127.62439156 C-73.63289123 129.08145971 -73.63883849 130.53854321 -73.65133476 131.99555779 C-73.73514697 143.36708319 -72.45843472 153.07486632 -64.26171875 161.56268311 C-53.90019031 170.38051762 -43.00357134 170.26396964 -30.13671875 170.16796875 C-28.20963095 170.17202014 -26.28254616 170.17785124 -24.35546875 170.18536377 C-20.3343358 170.19416434 -16.31400746 170.18149996 -12.29296875 170.15332031 C-7.16861915 170.11913628 -2.0461556 170.13884387 3.078125 170.1747551 C7.05222486 170.19655738 11.02588609 170.18948105 15 170.17398834 C16.88802317 170.17001907 18.7760877 170.17477929 20.6640625 170.18886566 C33.7837207 170.26529876 44.00008727 169.15013952 53.98828125 159.68359375 C61.90230572 151.11991055 61.17632956 141.32777539 61.1640625 130.28515625 C61.16795757 128.81838868 61.17229389 127.35162222 61.17704773 125.88485718 C61.18447908 122.82033624 61.18424135 119.75593056 61.17895508 116.69140625 C61.17316667 112.78910477 61.19009095 108.88727889 61.21329975 104.98505592 C61.22812374 101.95819398 61.22889707 98.93144428 61.22579002 95.90455246 C61.22629896 94.46702509 61.23145527 93.02949071 61.24160194 91.59199905 C61.43792845 76.68728344 61.43792845 76.68728344 54.48828125 63.99609375 C53.87210937 63.35542969 53.2559375 62.71476562 52.62109375 62.0546875 C45.63434729 55.362937 39.62082684 52.90940485 30.11743164 52.98291016 C28.84770256 52.97502472 28.84770256 52.97502472 27.55232239 52.96697998 C24.77166952 52.95384438 21.99159556 52.96249593 19.2109375 52.97265625 C17.26712434 52.97063348 15.32331192 52.96772034 13.37950134 52.96395874 C9.31192782 52.95954394 5.24455239 52.96593856 1.17700195 52.97998047 C-4.0225018 52.99706036 -9.22154052 52.9872333 -14.42102718 52.96926308 C-18.43347134 52.9583927 -22.44580631 52.9618867 -26.45825386 52.96964645 C-28.37470111 52.97164006 -30.29115845 52.96921885 -32.20759392 52.96220779 C-34.89248563 52.9545409 -37.57663761 52.96627088 -40.26147461 52.98291016 C-41.04458008 52.97683746 -41.82768555 52.97076477 -42.63452148 52.96450806 C-53.42693615 53.08766311 -61.05437308 58.28874808 -68.51171875 65.74609375 Z " fill="#0D0D0D" transform="translate(128.13671875,19.62890625)"/>
<path d="M0 0 C4.01538117 2.63076698 6.65230404 5.99602341 8.3125 10.5 C8.76287547 15.16968253 7.73786913 18.6329014 5.6875 22.8125 C1.87452061 27.1271872 -1.5022395 29.23163468 -7.25 29.9375 C-13.64352456 29.12377869 -17.49400053 26.29257082 -21.6875 21.5 C-23.54356957 15.93179128 -23.59902916 10.46890298 -21.125 5.125 C-14.91911887 -1.5582566 -8.56105186 -3.48246177 0 0 Z " fill="#0F0F0F" transform="translate(103.6875,105.5)"/>
<path d="M0 0 C4.62984438 2.43884736 7.74640562 5.61781125 10.07421875 10.2734375 C10.67391428 16.2703928 9.43028009 20.39285618 6.07421875 25.2734375 C2.3209535 29.12294032 -1.16554179 29.66579488 -6.36328125 30.0234375 C-10.12081555 29.92466803 -12.21443943 29.78254661 -15.2890625 27.58203125 C-19.73488011 22.58393816 -21.35623903 18.27982185 -21.26953125 11.625 C-20.68588406 7.63232262 -18.77484377 5.04732686 -15.92578125 2.2734375 C-11.01734256 -1.10793138 -5.62973844 -2.12399868 0 0 Z " fill="#0E0E0F" transform="translate(153.92578125,104.7265625)"/>
<path d="M0 0 C2.97 0 5.94 0 9 0 C9 13.2 9 26.4 9 40 C6.03 40 3.06 40 0 40 C-3.24774137 36.75225863 -3.35527743 35.92013736 -3.4168396 31.55322266 C-3.41076691 30.83440918 -3.40469421 30.1155957 -3.3984375 29.375 C-3.40130768 28.63169434 -3.40417786 27.88838867 -3.40713501 27.12255859 C-3.40917476 25.5524011 -3.403651 23.98221814 -3.39111328 22.41210938 C-3.37505703 20.00853668 -3.39096352 17.60664539 -3.41015625 15.203125 C-3.4081738 13.67707962 -3.40433009 12.15103529 -3.3984375 10.625 C-3.40754654 9.54677979 -3.40754654 9.54677979 -3.4168396 8.44677734 C-3.35527743 4.07986264 -3.24774137 3.24774137 0 0 Z " fill="#E5E5E7" transform="translate(39,111)"/>
<path d="M0 0 C8 0 8 0 11 2 C11.30417228 4.74252444 11.42005798 7.25552627 11.3984375 10 C11.40274277 11.18722656 11.40274277 11.18722656 11.40713501 12.3984375 C11.40917777 14.07292394 11.40363307 15.74743412 11.39111328 17.421875 C11.37506172 19.99012429 11.39095383 22.55679986 11.41015625 25.125 C11.40817385 26.75000349 11.40433025 28.37500599 11.3984375 30 C11.40754654 31.15628906 11.40754654 31.15628906 11.4168396 32.3359375 C11.38818359 34.5 11.38818359 34.5 11 38 C8 40 8 40 0 40 C0 26.8 0 13.6 0 0 Z " fill="#EEEEF0" transform="translate(197,111)"/>
<path d="M0 0 C3.24544251 0.04071344 4.2295947 0.30007938 7.125 2.0625 C10.47891566 5.61370482 10.47891566 5.61370482 11.25 8.3125 C11.05743088 13.60815084 9.94046589 16.51020181 6.25 20.3125 C3.04826746 21.91336627 -0.27577059 21.81167089 -3.75 21.3125 C-6.5600346 19.51886089 -8.25940468 18.29369065 -9.75 15.3125 C-10.17068924 12.25348826 -10.24028455 9.36491674 -9.75 6.3125 C-7.3125 3.3125 -7.3125 3.3125 -4.75 1.3125 C-3.75 0.3125 -3.75 0.3125 0 0 Z " fill="#EDEDEF" transform="translate(121.75,25.6875)"/>
<path d="M0 0 C5.96313166 -0.02464574 11.92623395 -0.042834 17.8894043 -0.05493164 C19.91968298 -0.05997278 21.94995802 -0.06680557 23.98022461 -0.07543945 C26.89177347 -0.08751467 29.8032745 -0.09323034 32.71484375 -0.09765625 C33.6283812 -0.10281754 34.54191864 -0.10797882 35.48313904 -0.11329651 C37.65575427 -0.11349168 39.82827296 -0.06211805 42 0 C43 1 43 1 43.125 3.5 C43 6 43 6 42 7 C38.9936175 7.11356724 36.01107558 7.16418912 33.00390625 7.16796875 C31.64808693 7.17296135 31.64808693 7.17296135 30.26487732 7.17805481 C28.34903473 7.18312796 26.43318328 7.18546302 24.51733398 7.18530273 C21.57846582 7.18748813 18.63997348 7.20563665 15.70117188 7.22460938 C13.84375129 7.22754337 11.98632891 7.22952813 10.12890625 7.23046875 C9.24554092 7.23765427 8.3621756 7.24483978 7.45204163 7.25224304 C1.22882139 7.22882139 1.22882139 7.22882139 -1 5 C-0.625 2.375 -0.625 2.375 0 0 Z " fill="#0A0A0B" transform="translate(101,156)"/>
<path d="M0 0 C3.38677089 2.45000447 4.78698584 3.86392446 5.5625 8 C4.84202557 11.8425303 3.99097304 13.45767292 1 16 C-1.8239452 16.71755985 -4.17527837 16.71196877 -7 16 C-10.2883921 13.28707652 -10.90851499 11.65183071 -11.5 7.4375 C-11 4 -11 4 -9.4375 1.5625 C-6.01685857 -0.63021887 -3.99048721 -0.63007693 0 0 Z " fill="#E5E5E7" transform="translate(151,111)"/>
<path d="M0 0 C3.8425303 0.72047443 5.45767292 1.57152696 8 4.5625 C8.94237143 8.56143269 8.61136591 11.54355682 6.5 15.0625 C2.98105682 17.17386591 -0.00106731 17.50487143 -4 16.5625 C-6.99097304 14.02017292 -7.84202557 12.4050303 -8.5625 8.5625 C-7.62098494 3.54108633 -5.02141367 0.94151506 0 0 Z " fill="#E6E6E8" transform="translate(96,110.4375)"/>
<path d="M0 0 C0.66 0.33 1.32 0.66 2 1 C-1.63 4.63 -5.26 8.26 -9 12 C-9 8.47601214 -8.44884893 7.98495633 -6.1875 5.4375 C-5.40439453 4.53837891 -5.40439453 4.53837891 -4.60546875 3.62109375 C-3 2 -3 2 0 0 Z " fill="#242425" transform="translate(64,72)"/>
<path d="M0 0 C0 0.33 0 0.66 0 1 C-1.5159375 1.061875 -1.5159375 1.061875 -3.0625 1.125 C-7.85902082 1.76127317 -10.67514558 4.69535746 -14 8 C-13.12269491 5.29497597 -12.28331029 3.31599994 -10.375 1.1875 C-6.84016181 -0.5799191 -3.92581331 -0.19629067 0 0 Z " fill="#A8A8AA" transform="translate(126,26)"/>
</svg>
