<?xml version="1.0" encoding="UTF-8"?>
<svg version="1.1" xmlns="http://www.w3.org/2000/svg" width="234" height="233">
<path d="M0 0 C77.22 0 154.44 0 234 0 C234 76.89 234 153.78 234 233 C156.78 233 79.56 233 0 233 C0 156.11 0 79.22 0 0 Z " fill="#EFEFF1" transform="translate(0,0)"/>
<path d="M0 0 C5.7984723 2.60931253 9.28535688 6.40860449 11.796875 12.26171875 C12.48622791 17.11925206 12.37903896 21.09739082 10.171875 25.51171875 C8.99625 26.87296875 8.99625 26.87296875 7.796875 28.26171875 C7.31476563 28.82117188 6.83265625 29.380625 6.3359375 29.95703125 C4.796875 31.63671875 4.796875 31.63671875 1.796875 34.26171875 C0.476875 34.26171875 -0.843125 34.26171875 -2.203125 34.26171875 C-2.203125 39.87171875 -2.203125 45.48171875 -2.203125 51.26171875 C0.106875 51.26171875 2.416875 51.26171875 4.796875 51.26171875 C6.796875 53.26171875 6.796875 53.26171875 6.796875 57.26171875 C4.23929293 58.54050978 2.41963839 58.39325319 -0.44384766 58.40356445 C-1.53903717 58.41059891 -2.63422668 58.41763336 -3.76260376 58.42488098 C-5.54687271 58.4311274 -5.54687271 58.4311274 -7.3671875 58.4375 C-9.8763104 58.46070637 -12.385425 58.48482403 -14.89453125 58.50976562 C-18.85764036 58.54483088 -22.82044631 58.57419268 -26.78369141 58.58764648 C-30.60356646 58.60315891 -34.42254924 58.64340277 -38.2421875 58.6875 C-39.41955475 58.68559158 -40.596922 58.68368317 -41.80996704 58.68171692 C-51.44306657 58.82430598 -58.17593805 61.349049 -65.24269104 68.09121704 C-72.77329066 76.42874826 -72.93913361 86.4780365 -72.83203125 97.11328125 C-72.83286216 98.62299775 -72.8353299 100.13271414 -72.83934021 101.64242554 C-72.84218018 104.7876142 -72.82767267 107.93208361 -72.80004883 111.07714844 C-72.76590904 115.08617854 -72.77202055 119.09392956 -72.7907114 123.10302162 C-72.80133238 126.21398381 -72.79229872 129.32465375 -72.77732658 132.43558884 C-72.77218555 133.91299952 -72.77257638 135.39044123 -72.77887154 136.86784744 C-72.80071498 145.06913508 -72.50079123 152.05762944 -68.203125 159.26171875 C-67.74550781 160.07125 -67.28789063 160.88078125 -66.81640625 161.71484375 C-63.07159529 166.88785588 -58.95554779 169.58108973 -53.203125 172.26171875 C-52.543125 172.59171875 -51.883125 172.92171875 -51.203125 173.26171875 C-48.4598961 173.38624536 -45.74109288 173.45060812 -42.99658203 173.47045898 C-42.14749771 173.48024277 -41.29841339 173.49002655 -40.42359924 173.50010681 C-37.60272795 173.53010814 -34.78190464 173.55146899 -31.9609375 173.5703125 C-30.9958514 173.57688433 -30.0307653 173.58345615 -29.03643417 173.59022713 C-23.91981218 173.62285439 -18.80321118 173.6472872 -13.68652344 173.66674805 C-9.46518237 173.68450146 -5.24451684 173.71922053 -1.0234375 173.76928711 C4.08181088 173.82976864 9.18643695 173.86026362 14.29202652 173.86992073 C16.2303605 173.87843606 18.16867964 173.89715627 20.10680771 173.92666435 C32.45533429 174.10441998 42.01727944 173.76201323 51.91964722 165.48802185 C60.35836832 156.88488335 61.38927208 146.04908902 61.37109375 134.53515625 C61.38525833 133.26572174 61.39942291 131.99628723 61.41401672 130.68838501 C61.44860212 127.35140167 61.4671671 124.01518927 61.47680664 120.67810059 C61.49435603 115.9445775 61.54130462 111.21125726 61.58686829 106.47793579 C61.60940537 103.96397058 61.62519436 101.44993437 61.63371277 98.93588257 C61.64074722 97.81025909 61.64778168 96.68463562 61.6550293 95.52490234 C61.65850876 94.52993744 61.66198822 93.53497253 61.66557312 92.50985718 C61.796875 90.26171875 61.796875 90.26171875 62.796875 89.26171875 C65.37596566 89.08026024 67.90274153 88.98351857 70.484375 88.94921875 C71.54688477 88.90571289 71.54688477 88.90571289 72.63085938 88.86132812 C77.80931095 88.79916758 80.69522701 89.84880326 84.796875 93.26171875 C87.41070468 97.18246327 87.1390219 100.57432968 87.16796875 105.12890625 C87.17699722 106.00064484 87.1860257 106.87238342 87.19532776 107.77053833 C87.20983362 109.61473149 87.21871783 111.45897615 87.22241211 113.30322266 C87.23430315 116.11970108 87.28347841 118.93398441 87.33398438 121.75 C87.34344946 123.54295807 87.35068409 125.33592958 87.35546875 127.12890625 C87.37500107 127.96863983 87.39453339 128.80837341 87.41465759 129.67355347 C87.38099213 134.05374504 87.2305853 135.7239619 84.38598633 139.25097656 C80.2399606 142.47084153 77.82966228 143.52573947 72.546875 143.38671875 C71.65484375 143.36867187 70.7628125 143.350625 69.84375 143.33203125 C69.16828125 143.30882812 68.4928125 143.285625 67.796875 143.26171875 C67.879375 144.35484375 67.961875 145.44796875 68.046875 146.57421875 C68.046875 155.16912315 64.02510009 163.97686565 58.046875 170.03515625 C51.32950526 176.2539712 43.25989318 181.08549236 33.921875 181.38671875 C32.890625 181.34546875 31.859375 181.30421875 30.796875 181.26171875 C30.82007813 182.10476562 30.84328125 182.9478125 30.8671875 183.81640625 C30.88523438 184.91210938 30.90328125 186.0078125 30.921875 187.13671875 C30.94507813 188.22726563 30.96828125 189.3178125 30.9921875 190.44140625 C30.796875 193.26171875 30.796875 193.26171875 28.796875 195.26171875 C27.476875 195.26171875 26.156875 195.26171875 24.796875 195.26171875 C22.70456102 191.0770908 23.796875 185.94027503 23.796875 181.26171875 C4.326875 181.26171875 -15.143125 181.26171875 -35.203125 181.26171875 C-35.203125 185.22171875 -35.203125 189.18171875 -35.203125 193.26171875 C-35.863125 193.92171875 -36.523125 194.58171875 -37.203125 195.26171875 C-38.853125 194.93171875 -40.503125 194.60171875 -42.203125 194.26171875 C-42.203125 189.97171875 -42.203125 185.68171875 -42.203125 181.26171875 C-43.151875 181.32359375 -44.100625 181.38546875 -45.078125 181.44921875 C-54.78757452 181.39049224 -63.31733495 177.01232883 -70.1796875 170.33984375 C-71.964596 168.38024207 -73.60056307 166.3721055 -75.203125 164.26171875 C-75.986875 163.23046875 -76.770625 162.19921875 -77.578125 161.13671875 C-80.49368191 155.81645037 -80.03912488 149.17392301 -80.203125 143.26171875 C-80.85539062 143.308125 -81.50765625 143.35453125 -82.1796875 143.40234375 C-88.08025049 143.64602482 -91.62196324 143.3959379 -96.203125 139.26171875 C-99.44207614 135.02852337 -99.6981307 131.12096166 -99.7421875 125.9609375 C-99.75454437 125.16573196 -99.76690125 124.37052643 -99.77963257 123.55122375 C-99.79914846 121.87284666 -99.81042203 120.19435595 -99.81396484 118.51586914 C-99.82803083 115.9662879 -99.89537024 113.42164072 -99.96484375 110.87304688 C-100.15148014 97.23828206 -100.15148014 97.23828206 -96.06640625 92.125 C-93.53522468 89.87981492 -92.2595651 89.27504581 -88.89453125 88.48046875 C-87.86199219 88.57328125 -86.82945313 88.66609375 -85.765625 88.76171875 C-84.71503906 88.83390625 -83.66445312 88.90609375 -82.58203125 88.98046875 C-81.79699219 89.07328125 -81.01195313 89.16609375 -80.203125 89.26171875 C-80.16574219 88.48828125 -80.12835938 87.71484375 -80.08984375 86.91796875 C-79.29714997 74.35921237 -76.29768477 68.14477713 -67.203125 59.26171875 C-64.36280803 56.81782639 -61.86285347 54.8429076 -58.328125 53.57421875 C-57.40386719 53.22810547 -57.40386719 53.22810547 -56.4609375 52.875 C-50.42191022 51.23464138 -44.41046591 51.12379245 -38.20703125 51.1640625 C-37.37348618 51.16547745 -36.5399411 51.1668924 -35.68113708 51.16835022 C-33.04259514 51.17390707 -30.40414091 51.18645135 -27.765625 51.19921875 C-25.96679811 51.20423933 -24.16796987 51.20880126 -22.36914062 51.21289062 C-17.98040851 51.22300757 -13.59186389 51.24259107 -9.203125 51.26171875 C-9.203125 45.32171875 -9.203125 39.38171875 -9.203125 33.26171875 C-11.513125 32.93171875 -13.823125 32.60171875 -16.203125 32.26171875 C-20.96058992 27.60997527 -23.24793731 23.47852807 -23.515625 16.88671875 C-23.3367303 11.49304343 -22.40524308 7.32250006 -18.31640625 3.49609375 C-12.34115471 -0.96709588 -7.16162512 -2.39990629 0 0 Z " fill="#060606" transform="translate(118.203125,16.73828125)"/>
<path d="M0 0 C2.1180618 1.23389414 4.20745991 2.51974705 6.25 3.875 C6.97703125 4.35324219 7.7040625 4.83148438 8.453125 5.32421875 C14.95756495 10.25910906 19.17363082 18.09329207 21.25 25.875 C23.07047137 39.70725737 20.81688913 49.92413999 12.49609375 61.265625 C5.79889314 68.84517817 -3.32483292 73.75820374 -13.38793945 74.4387207 C-19.80491965 74.64688853 -26.20911907 74.48801186 -32.625 74.3125 C-34.873649 74.27731926 -37.12235137 74.24539228 -39.37109375 74.21679688 C-44.83191097 74.14036198 -50.29070035 74.02381111 -55.75 73.875 C-55.82469384 67.66775074 -55.87885748 61.4607687 -55.91479492 55.25317383 C-55.92979183 53.14570553 -55.9501961 51.03826796 -55.97631836 48.9309082 C-56.01310475 45.88485078 -56.02981776 42.8392094 -56.04296875 39.79296875 C-56.05845261 38.86542282 -56.07393646 37.93787689 -56.08988953 36.98222351 C-56.09288726 25.07421757 -52.84212689 15.69281678 -44.75 6.875 C-32.45067104 -3.80650915 -14.96844777 -7.7473331 0 0 Z " fill="#020202" transform="translate(190.75,22.125)"/>
<path d="M0 0 C5.29836016 0.47306787 8.04247221 2.93375749 11.8125 6.5 C14.15286863 10.40061438 14.95367968 13.76814186 14.5 18.3125 C12.63392107 22.87490484 9.84775333 26.84877312 5.5 29.3125 C0.40183724 31.01188759 -3.88656926 30.95178388 -8.8125 29 C-12.68342635 26.56941834 -14.69885358 24.51027389 -16.5 20.3125 C-17.3361896 15.54695928 -17.52119699 11.1665464 -15.14453125 6.8515625 C-12.50642195 3.62526547 -10.48659605 1.64136535 -6.5 0.3125 C-3.41236499 0.35696597 -3.41236499 0.35696597 0 0 Z " fill="#0D0D0D" transform="translate(139.5,105.6875)"/>
<path d="M0 0 C3.5 1.8125 3.5 1.8125 6 4 C6.8971875 4.7734375 6.8971875 4.7734375 7.8125 5.5625 C10.76116813 9.13194037 10.44900812 13.80189536 10.4140625 18.19921875 C9.74499247 22.72490944 7.49858713 25.20447822 4 28 C-0.23360094 30.63169788 -5.14936489 30.66846208 -10 30 C-14.77842611 27.8361844 -17.2784602 24.9852745 -19.3671875 20.28125 C-20.54172457 16.04711635 -20.2266565 12.1916605 -19 8 C-14.47537456 0.1183944 -8.46211351 -1.00480032 0 0 Z " fill="#090909" transform="translate(91,106)"/>
<path d="M0 0 C4.77986577 0.46256766 7.40802227 2.14307161 10.875 5.375 C12.36998913 8.36497825 11.99077446 11.07542775 11.875 14.375 C10.49191359 18.52425924 8.70655154 19.35472737 4.875 21.375 C0.65676099 22.20711356 -2.37133029 21.85606577 -6.0625 19.5 C-9.44730986 16.01262014 -9.51099822 13.33913062 -9.48828125 8.63671875 C-8.9168883 5.07933683 -6.8737971 3.52040262 -4.125 1.375 C-3.125 0.375 -3.125 0.375 0 0 Z " fill="#ECECED" transform="translate(111.125,22.625)"/>
<path d="M0 0 C1.36560059 0.00303635 1.36560059 0.00303635 2.75878906 0.00613403 C3.68723633 0.00517731 4.61568359 0.00422058 5.57226562 0.00323486 C7.53938871 0.00255298 9.50651403 0.00440781 11.47363281 0.00857544 C14.49581932 0.01392358 17.51785721 0.00863071 20.54003906 0.00222778 C22.44628939 0.00288856 24.35253963 0.00416972 26.25878906 0.00613403 C27.16918945 0.0041098 28.07958984 0.00208557 29.01757812 0 C35.39383938 0.02399685 35.39383938 0.02399685 36.50878906 1.13894653 C36.54942738 2.80511768 36.55151006 4.47282748 36.50878906 6.13894653 C33.14207028 7.82230593 29.33582306 7.28048943 25.63378906 7.27175903 C24.31338623 7.27319412 24.31338623 7.27319412 22.96630859 7.2746582 C21.1035149 7.27533929 19.24071883 7.27348997 17.37792969 7.26931763 C14.52045378 7.26396837 11.66313506 7.26926502 8.80566406 7.27566528 C6.99837205 7.27500449 5.19108013 7.2737233 3.38378906 7.27175903 C2.09625732 7.27479538 2.09625732 7.27479538 0.78271484 7.27789307 C-5.26129349 7.25390526 -5.26129349 7.25390526 -7.49121094 6.13894653 C-7.53393194 4.47282748 -7.53184926 2.80511768 -7.49121094 1.13894653 C-5.54257169 -0.80969271 -2.59312374 0.00975913 0 0 Z " fill="#0F0F0F" transform="translate(97.4912109375,157.86105346679688)"/>
<path d="M0 0 C3.8425303 0.72047443 5.45767292 1.57152696 8 4.5625 C8.94237143 8.56143269 8.61136591 11.54355682 6.5 15.0625 C2.98105682 17.17386591 -0.00106731 17.50487143 -4 16.5625 C-6.99097304 14.02017292 -7.84202557 12.4050303 -8.5625 8.5625 C-7.62098494 3.54108633 -5.02141367 0.94151506 0 0 Z " fill="#E7E7E9" transform="translate(138,112.4375)"/>
<path d="M0 0 C3.8425303 0.72047443 5.45767292 1.57152696 8 4.5625 C8.94237143 8.56143269 8.61136591 11.54355682 6.5 15.0625 C2.98105682 17.17386591 -0.00106731 17.50487143 -4 16.5625 C-6.99097304 14.02017292 -7.84202557 12.4050303 -8.5625 8.5625 C-7.62098494 3.54108633 -5.02141367 0.94151506 0 0 Z " fill="#E8E8EA" transform="translate(86,112.4375)"/>
<path d="M0 0 C2.00720923 0.28674418 4.0085944 0.61866701 6 1 C5.67 2.65 5.34 4.3 5 6 C3.34385343 6.38218767 1.67542976 6.71395102 0 7 C-1 6 -1 6 -1.125 3.5 C-1 1 -1 1 0 0 Z " fill="#D5D5D6" transform="translate(188,54)"/>
<path d="M0 0 C1.2065625 0.0309375 1.2065625 0.0309375 2.4375 0.0625 C3.0625 2.4375 3.0625 2.4375 3.4375 5.0625 C2.7775 5.7225 2.1175 6.3825 1.4375 7.0625 C-0.6875 6.6875 -0.6875 6.6875 -2.5625 6.0625 C-2.94468767 4.40635343 -3.27645102 2.73792976 -3.5625 1.0625 C-2.5625 0.0625 -2.5625 0.0625 0 0 Z " fill="#D7D7D9" transform="translate(173.5625,53.9375)"/>
<path d="M0 0 C1.67542976 0.28604898 3.34385343 0.61781233 5 1 C5 2.65 5 4.3 5 6 C3.34385343 6.38218767 1.67542976 6.71395102 0 7 C-1 6 -1 6 -1.125 3.5 C-1 1 -1 1 0 0 Z " fill="#DEDEDF" transform="translate(155,54)"/>
<path d="M0 0 C1.134375 0.020625 2.26875 0.04125 3.4375 0.0625 C3.4375 0.3925 3.4375 0.7225 3.4375 1.0625 C2.365 1.31 1.2925 1.5575 0.1875 1.8125 C-3.6956085 3.1068695 -5.2756506 3.72018165 -7.5625 7.0625 C-8.17355304 9.76563293 -8.37698249 12.2797373 -8.5625 15.0625 C-8.8925 15.0625 -9.2225 15.0625 -9.5625 15.0625 C-10.34984859 7.03154441 -10.34984859 7.03154441 -7.125 3.0625 C-6.279375 2.4025 -5.43375 1.7425 -4.5625 1.0625 C-3.5625 0.0625 -3.5625 0.0625 0 0 Z " fill="#B0B0B1" transform="translate(111.5625,22.9375)"/>
<path d="M0 0 C0.66 0.33 1.32 0.66 2 1 C-1.63 4.63 -5.26 8.26 -9 12 C-9 8.47601214 -8.44884893 7.98495633 -6.1875 5.4375 C-5.40439453 4.53837891 -5.40439453 4.53837891 -4.60546875 3.62109375 C-3 2 -3 2 0 0 Z " fill="#252525" transform="translate(151,25)"/>
<path d="M0 0 C0.53625 0.268125 1.0725 0.53625 1.625 0.8125 C0.92375 1.204375 0.2225 1.59625 -0.5 2 C-3.73574432 4.03992577 -6.47757782 6.31936929 -9.375 8.8125 C-9.12158809 5.39143924 -8.06717816 4.50467816 -5.5625 2 C-2.375 -0.1875 -2.375 -0.1875 0 0 Z " fill="#343435" transform="translate(82.375,106.1875)"/>
<path d="M0 0 C0.66 0.33 1.32 0.66 2 1 C-0.64 3.64 -3.28 6.28 -6 9 C-6 6 -6 6 -3.5625 3.375 C-2.716875 2.59125 -1.87125 1.8075 -1 1 C-0.67 0.67 -0.34 0.34 0 0 Z " fill="#2E2E2F" transform="translate(103,18)"/>
</svg>
