<?xml version="1.0" encoding="UTF-8"?>
<svg width="64px" height="64px" viewBox="0 0 64 64" version="1.1" xmlns="http://www.w3.org/2000/svg">
    <g stroke="none" stroke-width="1" fill="none" fill-rule="evenodd">
        <rect fill="#5865F2" x="0" y="0" width="64" height="64" rx="12"/>
        <path d="M44,40 C43.2,39.2 42.4,38.4 41.6,37.6 C42.4,36.8 43.2,36 44,35.2 C43.2,34.4 42.4,33.6 41.6,32.8 C42.4,32 43.2,31.2 44,30.4 C43.2,29.6 42.4,28.8 41.6,28 C42.4,27.2 43.2,26.4 44,25.6 C43.2,24.8 42.4,24 41.6,23.2 C40.8,22.4 40,21.6 39.2,20.8 C38.4,20 37.6,19.2 36.8,18.4 C36,17.6 35.2,16.8 34.4,16 C33.6,15.2 32.8,14.4 32,13.6 C31.2,14.4 30.4,15.2 29.6,16 C28.8,16.8 28,17.6 27.2,18.4 C26.4,19.2 25.6,20 24.8,20.8 C24,21.6 23.2,22.4 22.4,23.2 C21.6,24 20.8,24.8 20,25.6 C20.8,26.4 21.6,27.2 22.4,28 C21.6,28.8 20.8,29.6 20,30.4 C20.8,31.2 21.6,32 22.4,32.8 C21.6,33.6 20.8,34.4 20,35.2 C20.8,36 21.6,36.8 22.4,37.6 C21.6,38.4 20.8,39.2 20,40 C20.8,40.8 21.6,41.6 22.4,42.4 C23.2,43.2 24,44 24.8,44.8 C25.6,45.6 26.4,46.4 27.2,47.2 C28,48 28.8,48.8 29.6,49.6 C30.4,50.4 31.2,51.2 32,52 C32.8,51.2 33.6,50.4 34.4,49.6 C35.2,48.8 36,48 36.8,47.2 C37.6,46.4 38.4,45.6 39.2,44.8 C40,44 40.8,43.2 41.6,42.4 C42.4,41.6 43.2,40.8 44,40 Z" fill="#FFFFFF"/>
    </g>
</svg>
