<svg width="64" height="64" viewBox="0 0 64 64" fill="none" xmlns="http://www.w3.org/2000/svg">
  <rect width="64" height="64" rx="14" fill="#EEF2FF"/>
  <path d="M28 18H22C20.3431 18 19 19.3431 19 21V43C19 44.6569 20.3431 46 22 46H42C43.6569 46 45 44.6569 45 43V31" stroke="#1D4ED8" stroke-width="2.4" stroke-linecap="round" stroke-linejoin="round"/>
  <path d="M28 18H37C38.6569 18 40 19.3431 40 21V24C40 25.6569 41.3431 27 43 27H45" stroke="#1D4ED8" stroke-width="2.4" stroke-linecap="round" stroke-linejoin="round"/>
  <path d="M24 26H29" stroke="#94A3B8" stroke-width="2.4" stroke-linecap="round"/>
  <path d="M24 33H33" stroke="#94A3B8" stroke-width="2.4" stroke-linecap="round"/>
  <path d="M24 40H36" stroke="#94A3B8" stroke-width="2.4" stroke-linecap="round"/>
  <path d="M33 22L39 28" stroke="#38BDF8" stroke-width="2.4" stroke-linecap="round" stroke-linejoin="round"/>
  <path d="M45 18V14.5C45 13.6716 45.6716 13 46.5 13H50" stroke="#1D4ED8" stroke-width="2.4" stroke-linecap="round"/>
  <path d="M50 13L45 18L50 23" stroke="#1D4ED8" stroke-width="2.4" stroke-linecap="round" stroke-linejoin="round"/>
  <path d="M36 51L42 45" stroke="#34D399" stroke-width="2.4" stroke-linecap="round" stroke-linejoin="round"/>
  <path d="M45 45H42C40.3431 45 39 43.6569 39 42V38" stroke="#34D399" stroke-width="2.4" stroke-linecap="round" stroke-linejoin="round"/>
  <path d="M39 58V61.5C39 62.3284 38.3284 63 37.5 63H34" stroke="#34D399" stroke-width="2.4" stroke-linecap="round"/>
  <path d="M34 63L39 58L34 53" stroke="#34D399" stroke-width="2.4" stroke-linecap="round" stroke-linejoin="round"/>
</svg>
