<?xml version="1.0" encoding="UTF-8"?>
<svg width="64px" height="64px" viewBox="0 0 64 64" version="1.1" xmlns="http://www.w3.org/2000/svg">
    <g stroke="none" stroke-width="1" fill="none" fill-rule="evenodd">
        <rect fill="#181717" x="0" y="0" width="64" height="64" rx="12"/>
        <path d="M32,16 C23.2,16 16,23.2 16,32 C16,38.4 19.2,43.8 24,46.4 C24.8,46.6 25,46.2 25,45.8 C25,45.4 25,44.6 25,43.6 C22,44.2 21,42.4 21,42.4 C20.2,41 19.2,40.6 19.2,40.6 C18,39.8 19,39.8 19,39.8 C20,39.8 20.6,40.8 20.6,40.8 C21.8,42.6 23.6,42.2 25,42 C25.2,41 25.6,40.4 26,40.2 C22.4,40 20.8,38.4 20.8,36.2 C20.8,35.2 21.2,34.4 21.8,33.8 C21.6,33.4 21,32.2 21.6,30.6 C21.6,30.6 22.6,30.2 25,31.8 C25.8,31.6 26.6,31.4 27.4,31.4 C28.2,31.4 29,31.6 29.8,31.8 C32.2,30.2 33.2,30.6 33.2,30.6 C33.8,32.2 33.2,33.4 33,33.8 C33.6,34.4 34,35.2 34,36.2 C34,38.4 32.4,40 28.8,40.2 C29.2,40.6 29.6,41.4 29.6,42.6 C29.6,44.4 29.6,45.8 29.6,45.8 C29.6,46.2 29.8,46.6 30.6,46.4 C35.4,43.8 38.6,38.4 38.6,32 C38.6,23.2 31.4,16 32,16 Z" fill="#FFFFFF"/>
    </g>
</svg>
