<?xml version="1.0" encoding="UTF-8"?>
<svg width="64px" height="64px" viewBox="0 0 64 64" version="1.1" xmlns="http://www.w3.org/2000/svg">
    <g stroke="none" stroke-width="1" fill="none" fill-rule="evenodd">
        <rect fill="#181717" x="0" y="0" width="64" height="64" rx="12"/>
        <path d="M32,16 C23.2,16 16,23.2 16,32 C16,38.4 19.6,43.8 25.2,46.4 C25.8,46.5 26,46.2 26,45.9 C26,45.6 26,44.9 26,43.8 C22.7,44.4 21.3,42.1 21.3,42.1 C20.4,40.4 19.2,39.9 19.2,39.9 C17.7,39 19.2,39 19.2,39 C20.7,39.1 21.5,40.5 21.5,40.5 C23,42.7 25.1,42.1 26,41.8 C26.1,40.9 26.4,40.3 26.8,39.9 C24.5,39.6 22,38.6 22,35.5 C22,34.1 22.5,33 23.3,32.1 C23.2,31.8 22.7,30.7 23.3,29.3 C23.3,29.3 24.2,29 26,30.2 C26.8,30 27.6,29.8 28.4,29.8 C29.2,29.8 30,30 30.8,30.2 C32.6,28.9 33.5,29.3 33.5,29.3 C34.1,30.7 33.6,31.8 33.5,32.1 C34.3,33 34.8,34.1 34.8,35.5 C34.8,38.6 32.3,39.6 30,39.9 C30.5,40.4 30.9,41.2 30.9,42.4 C30.9,44.2 30.9,45.7 30.9,45.9 C30.9,46.2 31.1,46.5 31.7,46.4 C37.3,43.8 40.9,38.4 40.9,32 C40.9,23.2 33.7,16 25,16 Z" fill="#FFFFFF"/>
    </g>
</svg>
