<svg width="220" height="30" viewBox="0 0 220 30" fill="none" xmlns="http://www.w3.org/2000/svg">
<g clip-path="url(#clip0_5_2)">
<path d="M219.202 21.3611C218.498 23.3323 217.442 24.9497 216.035 26.2134C214.628 27.4771 212.92 28.3611 210.913 28.8654C208.905 29.3697 206.696 29.5697 204.285 29.4654C201.875 29.3611 199.313 28.908 196.602 28.1061C193.89 27.3042 191.178 26.1226 188.467 24.5614C185.755 23.0002 183.145 21.0393 180.635 18.6787C178.125 16.3182 175.765 13.5283 173.556 10.3093C171.346 7.09026 169.442 3.51998 167.842 0L160.019 1.03932C161.778 5.12264 163.89 8.68284 166.355 11.72C168.819 14.7571 171.69 17.2002 174.967 19.0491C178.243 20.898 181.823 22.1526 185.705 22.8131C189.587 23.4736 193.67 23.5199 197.955 22.9521C199.613 22.7429 201.019 22.3736 202.175 21.8443C203.331 21.3149 204.187 20.6111 204.743 19.7331C205.299 18.8552 205.5 17.7802 205.346 16.5082C205.193 15.2361 204.688 13.8611 203.831 12.3831C202.975 10.9052 201.819 9.40816 200.364 7.89203C198.908 6.3759 197.152 4.90816 195.093 3.4888C193.035 2.06945 190.725 0.780217 188.164 0L180.89 1.12264C184.267 2.16196 187.393 3.59363 190.267 5.41764C193.14 7.24165 195.664 9.39801 197.838 11.8867C200.013 14.3754 201.838 17.1552 203.313 20.2261C204.788 23.297 205.602 26.5491 205.755 29.9831C204.452 29.8226 203.202 29.6226 202.005 29.3831C200.807 29.1436 199.664 28.8552 198.575 28.5182C197.487 28.1811 196.452 27.7929 195.467 27.3552C194.482 26.9173 193.553 26.4226 192.678 25.8704C189.916 24.1619 187.505 22.1226 185.443 19.7521C183.382 17.3816 181.728 14.7331 180.482 11.8061C179.235 8.87899 178.443 5.79203 178.102 2.5449L170.182 3.62822C170.472 6.55523 171.282 9.42825 172.613 12.2473C173.943 15.0664 175.767 17.7283 178.082 20.2331C180.396 22.738 183.167 24.9649 186.393 26.9134C189.619 28.8619 193.243 30.4173 197.267 31.5793L198.719 31.8443L198.985 32.2283C199.302 32.7483 199.661 33.2429 200.061 33.7121C200.461 34.1813 200.902 34.6254 201.385 35.0443C201.867 35.4632 202.396 35.8521 202.972 36.2121C203.546 36.572 204.161 36.898 204.816 37.1908C206.525 37.9497 208.385 38.3754 210.393 38.4682C212.402 38.5609 214.364 38.3121 216.278 37.7226C218.193 37.1331 219.952 36.1952 221.555 34.908C223.158 33.6208 224.505 31.9649 225.596 29.9413C226.688 27.9176 227.428 25.5609 227.816 22.8697L219.202 21.3611Z" fill="#262626"/>
<path d="M129.544 29.3621C131.656 29.3621 133.516 28.8933 135.124 27.9558C136.732 27.0184 137.986 25.6887 138.889 23.9669C139.791 22.245 140.243 20.2289 140.243 17.9184C140.243 15.6078 139.791 13.5918 138.889 11.8699C137.986 10.1481 136.732 8.8184 135.124 7.88091C133.516 6.94342 131.656 6.47467 129.544 6.47467C127.432 6.47467 125.572 6.94342 123.964 7.88091C122.356 8.8184 121.102 10.1481 120.2 11.8699C119.297 13.5918 118.846 15.6078 118.846 17.9184C118.846 20.2289 119.297 22.245 120.2 23.9669C121.102 25.6887 122.356 27.0184 123.964 27.9558C125.572 28.8933 127.432 29.3621 129.544 29.3621ZM129.544 21.5472C128.791 21.5472 128.164 21.3621 127.664 20.992C127.164 20.6218 126.838 20.0818 126.685 19.372C127.532 19.7809 128.497 19.9854 129.585 19.9854C130.672 19.9854 131.638 19.7809 132.485 19.372C132.332 20.0818 132.005 20.6218 131.505 20.992C131.005 21.3621 130.378 21.5472 129.624 21.5472L129.544 21.5472Z" fill="#262626"/>
<path d="M107.019 18.0609L107.059 18.1093L107.124 18.1578L107.256 18.2062L107.419 18.237L107.602 18.2524L107.743 18.2678L107.785 18.2678L107.828 18.2678L107.785 18.2678L107.813 18.2678C108.969 18.2678 109.969 18.0109 110.816 17.4972C111.663 16.9834 112.302 16.2678 112.732 15.3524C113.161 14.437 113.378 13.3809 113.378 12.1834C113.378 10.9472 113.152 9.87203 112.702 8.95842C112.251 8.04481 111.602 7.33091 110.756 6.8172C109.909 6.30349 108.919 6.04667 107.785 6.04667H95.4587V28.9334H102.732V19.9093C103.772 20.4524 104.885 20.7234 106.072 20.7234L106.113 20.7234L106.143 20.708L106.185 20.6772L106.251 20.6309L106.332 20.5558L106.456 20.437L106.632 20.2524L106.828 19.9854L106.946 19.6484L107.005 19.2644L107.019 18.822L107.019 18.0609ZM107.213 12.3093C107.213 13.0193 107.085 13.6284 106.828 14.137C106.572 14.6455 106.213 15.0295 105.756 15.2893C105.299 15.5491 104.756 15.6789 104.128 15.6789H102.732V8.6322H104.128C104.756 8.6322 105.299 8.76196 105.756 9.02203C106.213 9.28211 106.572 9.66609 106.828 10.1747C107.085 10.6832 107.213 11.2922 107.213 12.0022V12.3093Z" fill="#262626"/>
<path d="M82.2667 19.3879L82.3087 19.4295L82.3787 19.4704L82.5087 19.5113L82.6827 19.5413L82.8727 19.5542L83.0227 19.5671L83.0647 19.5671L83.1067 19.5671L83.0647 19.5671L83.0947 19.5671C84.3427 19.5671 85.4227 19.3042 86.3347 18.777C87.2467 18.2498 87.9547 17.5195 88.4587 16.5861C88.9627 15.6526 89.2147 14.5671 89.2147 13.3295C89.2147 12.0334 88.9807 10.9161 88.5127 9.97762C88.0447 9.03913 87.3827 8.3113 86.5267 7.79413C85.6707 7.27696 84.6627 7.01953 83.5027 7.01953H71.2947V29.9061H78.5267V20.882C79.6427 21.4359 80.8427 21.7126 82.1267 21.7126L82.1687 21.7126L82.2007 21.6972L82.2427 21.6661L82.3087 21.6187L82.3927 21.5413L82.5207 21.4213L82.7027 21.2359L82.9087 20.9671L83.0347 20.6287L83.0947 20.2429L83.1067 19.8006L83.1067 19.0379L82.2667 19.3879ZM82.6347 13.4542C82.6347 14.1802 82.5027 14.8006 82.2387 15.3144C81.9747 15.8281 81.6067 16.2161 81.1347 16.478C80.6627 16.7398 80.0987 16.8704 79.4427 16.8704H78.5267V9.82422H79.4427C80.0987 9.82422 80.6627 9.95484 81.1347 10.2167C81.6067 10.4786 81.9747 10.8667 82.2387 11.3804C82.5027 11.8941 82.6347 12.5144 82.6347 13.2398V13.4542Z" fill="#262626"/>
<path d="M47.7495 19.2393C48.6515 19.2393 49.4675 19.0387 50.1975 18.6376C50.9275 18.2366 51.5295 17.6749 51.9995 16.9526C52.4695 16.2304 52.7055 15.387 52.7055 14.4226C52.7055 13.0604 52.3335 11.9161 51.5895 11.0026C50.8455 10.0891 49.8875 9.63232 48.7155 9.63232C48.2455 9.63232 47.7915 9.69116 47.3535 9.80899C46.9155 9.92683 46.4955 10.1035 46.0935 10.3391L46.0755 10.3237L46.0455 10.2929L45.9855 10.2323L45.8955 10.1419L45.7695 10.0026L45.5895 9.7929L45.3615 9.51263L45.1695 9.24806L45.0315 9.01263L44.9355 8.81609L44.8875 8.66838L44.8755 8.35263V0H42.0675C41.0115 0.513714 40.0115 0.770535 39.0675 0.770535C38.1235 0.770535 37.1235 0.513714 36.0675 0V8.35263L36.0915 8.36806L36.1035 8.65263L36.1515 8.81609L36.2475 9.01263L36.3855 9.24806L36.5775 9.51263L36.8055 9.7929L36.9855 10.0026L37.1115 10.1419L37.2015 10.2323L37.2615 10.2929L37.2915 10.3237L37.2735 10.3391C36.8715 10.1035 36.4515 9.92683 36.0135 9.80899C35.5755 9.69116 35.1215 9.63232 34.6515 9.63232C33.4795 9.63232 32.5215 10.0891 31.7775 11.0026C31.0335 11.9161 30.6615 13.0604 30.6615 14.4226C30.6615 15.387 30.8975 16.2304 31.3695 16.9526C31.8395 17.6749 32.4435 18.2366 33.1755 18.6376C33.9055 19.0387 34.7235 19.2393 35.6235 19.2393C36.6315 19.2393 37.5315 18.9904 38.3235 18.4929C39.1155 17.9954 39.7395 17.2929 40.1955 16.3858L41.3415 28.9061H54.0135L52.8675 16.3858C53.3235 17.2929 53.9475 17.9954 54.7395 18.4929C55.5315 18.9904 56.4315 19.2393 57.4395 19.2393C58.3395 19.2393 59.1555 19.0387 59.8875 18.6376C60.6175 18.2366 61.2195 17.6749 61.6895 16.9526C62.1595 16.2304 62.3955 15.387 62.3955 14.4226C62.3955 13.0604 62.0235 11.9161 61.2795 11.0026C60.5355 10.0891 59.5775 9.63232 58.4055 9.63232C57.9355 9.63232 57.4815 9.69116 57.0435 9.80899C56.6055 9.92683 56.1855 10.1035 55.7835 10.3391L55.7655 10.3237L55.7355 10.2929L55.6755 10.2323L55.5855 10.1419L55.4595 10.0026L55.2795 9.7929L55.0515 9.51263L54.8595 9.24806L54.7215 9.01263L54.6255 8.81609L54.5775 8.66838L54.5655 8.35263V0C53.5095 0.513714 52.5095 0.770535 51.5655 0.770535C50.6215 0.770535 49.6215 0.513714 48.5655 0V8.35263L48.5895 8.36806L48.6015 8.65263L48.6495 8.81609L48.7455 9.01263L48.8835 9.24806L49.0755 9.51263L49.3035 9.7929L49.4835 10.0026L49.6095 10.1419L49.6995 10.2323L49.7595 10.2929L49.7895 10.3237L49.7715 10.3391C49.3695 10.1035 48.9495 9.92683 48.5115 9.80899C48.0735 9.69116 47.6195 9.63232 47.1495 9.63232C46.0155 9.63232 45.0915 10.0573 44.3775 10.9073C43.6635 11.7573 43.3095 12.8687 43.3095 14.2419C43.3095 15.3089 43.5855 16.2026 44.1375 16.9226C44.6895 17.6426 45.4155 18.1571 46.3155 18.4661C45.8455 18.7279 45.4635 19.0484 45.1695 19.4276C44.8755 19.8068 44.7295 20.2449 44.7295 20.7419C44.7295 21.6089 45.0315 22.3113 45.6375 22.8491C46.2435 23.387 47.0115 23.6561 47.9415 23.6561C48.8715 23.6561 49.6455 23.387 50.2635 22.8491C50.8815 22.3113 51.1935 21.6089 51.1935 20.7419C51.1935 20.2449 51.0475 19.8068 50.7555 19.4276C50.4615 19.0484 50.0775 18.7279 49.6095 18.4661C50.5095 18.1571 51.2355 17.6426 51.7875 16.9226C52.3395 16.2026 52.6155 15.3089 52.6155 14.2419C52.6155 12.8687 52.2615 11.7573 51.5475 10.9073C50.8335 10.0573 49.9095 9.63232 48.7755 9.63232H47.7495V19.2393ZM47.7495 20.8491C47.7495 20.4502 47.9355 20.1249 48.3075 19.8732C48.6795 19.6215 49.1175 19.4957 49.6215 19.4957C50.1255 19.4957 50.5635 19.6215 50.9355 19.8732C51.3075 20.1249 51.4935 20.4502 51.4935 20.8491C51.4935 21.248 51.3075 21.5732 50.9355 21.8249C50.5635 22.0766 50.1255 22.2025 49.6215 22.2025C49.1175 22.2025 48.6795 22.0766 48.3075 21.8249C47.9355 21.5732 47.7495 21.248 47.7495 20.8491Z" fill="#262626"/>
<path d="M12.919 14.2818C13.8839 14.2818 14.7339 14.0726 15.469 13.6545C16.204 13.2364 16.7839 12.6393 17.209 11.8633C17.6339 11.0873 17.8465 10.1839 17.8465 9.15268C17.8465 8.07268 17.6273 7.14729 17.189 6.37545C16.7506 5.60361 16.1465 4.99729 15.3765 4.55636C14.6065 4.11543 13.724 3.89543 12.729 3.89543H0V28.9333H7.27273V15.7599H11.5165C11.9549 16.4833 12.569 16.9184 13.359 17.0654L13.5606 17.1L13.7165 17.1333L13.8406 17.1668L13.9106 17.2033L13.924 17.2433L13.8839 17.2918L13.8015 17.3768L13.6706 17.4988L13.4865 17.6618L13.2356 17.8933L12.9065 18.2113L12.4927 18.6133L12.0165 19.1118L11.4927 19.7099L10.9406 20.4036L10.3839 21.1754L9.84393 22.0013L9.34065 22.8681L8.88901 23.7618L8.50393 24.6654L8.19729 25.5609L7.97901 26.4277L7.84939 27.2436L7.80154 27.9909L7.824 28.6399L7.88901 28.9599H15.8956C15.2539 27.8599 14.839 26.7918 14.6506 25.7563C14.4623 24.7208 14.3681 23.7333 14.3681 22.7936C14.3681 21.9018 14.4623 21.0545 14.6506 20.2509C14.839 19.4473 15.1273 18.7018 15.5156 18.0145C15.904 17.3272 16.3839 16.7208 16.9565 16.1963C17.529 15.6718 18.179 15.2418 18.9065 14.9063L19.229 14.7781L19.5356 14.6863L19.8165 14.6345L20.0623 14.6136L20.259 14.6218L20.4015 14.6436L20.4839 14.6736L20.509 14.7145L20.4653 14.7836L20.3706 14.8936L20.224 15.0436L19.9981 15.2754L19.689 15.5891L19.289 15.9909L18.789 16.4909L18.189 17.0909L17.489 17.7909L16.689 18.5909L15.789 19.4909L14.789 20.4909L13.689 21.5909L12.489 22.7909L11.189 24.0909L9.78901 25.4909L8.28901 26.9909L6.68901 28.5909L4.98901 30.2909L3.18901 32.0909L1.28901 33.9909L-0.710988 36.0909L-2.811 38.2909H12.919C15.119 38.2909 17.0356 37.8399 18.6706 36.9381C20.3056 36.0363 21.619 34.7618 22.609 33.1145C23.599 31.4672 24.094 29.5472 24.094 27.3545C24.094 25.6818 23.7706 24.1181 23.124 22.6636C22.4773 21.209 21.574 19.9272 20.4139 18.8181C19.2539 17.709 17.889 16.809 16.319 16.1181C14.749 15.4272 12.919 15.0609V14.2818ZM12.729 9.61995C12.729 9.61995 12.729 9.61995 12.729 9.61995C13.2381 9.61995 13.6653 9.77813 14.0106 10.0945C14.3559 10.4108 14.529 10.8381 14.529 11.3763C14.529 11.9145 14.3559 12.3418 14.0106 12.6581C13.6653 12.9745 13.2381 13.1327 12.729 13.1327H7.27273V9.61995H12.729Z" fill="#262626"/>
</g>
<defs>
<clipPath id="clip0_5_2">
<rect width="220" height="30" fill="white"/>
</clipPath>
</defs>
</svg> 