<?xml version="1.0" encoding="UTF-8"?>
<svg width="64px" height="64px" viewBox="0 0 64 64" version="1.1" xmlns="http://www.w3.org/2000/svg">
    <g stroke="none" stroke-width="1" fill="none" fill-rule="evenodd">
        <rect fill="#FF7A59" x="0" y="0" width="64" height="64" rx="12"/>
        <path d="M32,16 C23.2,16 16,23.2 16,32 C16,40.8 23.2,48 32,48 C40.8,48 48,40.8 48,32 C48,23.2 40.8,16 32,16 Z M32,44 C25.4,44 20,38.6 20,32 C20,25.4 25.4,20 32,20 C38.6,20 44,25.4 44,32 C44,38.6 38.6,44 32,44 Z M32,24 C27.6,24 24,27.6 24,32 C24,36.4 27.6,40 32,40 C36.4,40 40,36.4 40,32 C40,27.6 36.4,24 32,24 Z" fill="#FFFFFF"/>
    </g>
</svg>
