<?xml version="1.0" encoding="UTF-8"?>
<svg width="64px" height="64px" viewBox="0 0 64 64" version="1.1" xmlns="http://www.w3.org/2000/svg">
    <g stroke="none" stroke-width="1" fill="none" fill-rule="evenodd">
        <rect fill="#0A66C2" x="0" y="0" width="64" height="64" rx="12"/>
        <path d="M16,16 L16,48 L24,48 L24,32 C24,28.7 26.7,26 30,26 C33.3,26 36,28.7 36,32 L36,48 L44,48 L44,32 C44,24.3 37.7,18 30,18 C26.3,18 22.7,19.7 20.3,22.3 L20.3,16 L16,16 Z M20,12 C22.2,12 24,10.2 24,8 C24,5.8 22.2,4 20,4 C17.8,4 16,5.8 16,8 C16,10.2 17.8,12 20,12 Z" fill="#FFFFFF"/>
    </g>
</svg>
