<?xml version="1.0" encoding="UTF-8"?>
<svg width="64px" height="64px" viewBox="0 0 64 64" version="1.1" xmlns="http://www.w3.org/2000/svg">
    <g stroke="none" stroke-width="1" fill="none" fill-rule="evenodd">
        <rect fill="#0A66C2" x="0" y="0" width="64" height="64" rx="12"/>
        <path d="M20,24 L20,44 L16,44 L16,24 L20,24 Z M18,20 C19.1,20 20,19.1 20,18 C20,16.9 19.1,16 18,16 C16.9,16 16,16.9 16,18 C16,19.1 16.9,20 18,20 Z M36,44 L32,44 L32,34 C32,32.3 31.2,31.5 29.8,31.5 C28.6,31.5 27.8,32.3 27.8,34 L27.8,44 L24,44 L24,24 L27.8,24 L27.8,26.2 C28.4,25.4 29.6,24.5 31.4,24.5 C33.6,24.5 36,26.2 36,30.8 L36,44 Z" fill="#FFFFFF"/>
    </g>
</svg>
