<svg viewBox="0 0 24 24" fill="none" xmlns="http://www.w3.org/2000/svg">
  <path d="M12 2C13.1046 2 14 2.89543 14 4C14 5.10457 13.1046 6 12 6C10.8954 6 10 5.10457 10 4C10 2.89543 10.8954 2 12 2Z" fill="#6B7280"/>
  <path d="M12 8C13.6569 8 15 9.34315 15 11V13H16C16.5523 13 17 13.4477 17 14C17 14.5523 16.5523 15 16 15H15V19C15 20.6569 13.6569 22 12 22C10.3431 22 9 20.6569 9 19V15H8C7.44772 15 7 14.5523 7 14C7 13.4477 7.44772 13 8 13H9V11C9 9.34315 10.3431 8 12 8Z" fill="#6B7280"/>
  <path d="M11 11V19C11 19.5523 11.4477 20 12 20C12.5523 20 13 19.5523 13 19V11C13 10.4477 12.5523 10 12 10C11.4477 10 11 10.4477 11 11Z" fill="white"/>
</svg>