<svg width="141" height="32" viewBox="0 0 141 32" fill="none" xmlns="http://www.w3.org/2000/svg">
<path d="M41.8596 15.1147C41.8596 12.636 41.0374 10.5186 39.3929 8.76246C37.7484 7.00632 35.6592 6.12825 33.1253 6.12825C30.5914 6.12825 28.5022 7.00632 26.8577 8.76246C25.2132 10.5186 24.3909 12.636 24.3909 15.1147C24.3909 17.5934 25.2132 19.7108 26.8577 21.467C28.5022 23.2231 30.5914 24.1012 33.1253 24.1012C35.6592 24.1012 37.7484 23.2231 39.3929 21.467C41.0374 19.7108 41.8596 17.5934 41.8596 15.1147ZM33.1253 20.86C31.5458 20.86 30.2912 20.3228 29.3615 19.2483C28.4318 18.1738 27.967 16.7909 27.967 15.1147C27.967 13.4385 28.4318 12.0556 29.3615 10.9811C30.2912 9.90659 31.5458 9.37562 33.1253 9.37562C34.7048 9.37562 35.9594 9.91289 36.8891 10.9811C37.8188 12.0556 38.2837 13.4385 38.2837 15.1147C38.2837 16.7909 37.8188 18.1738 36.8891 19.2483C35.9594 20.3228 34.7048 20.86 33.1253 20.86Z" fill="#0E101A"/>
<path d="M60.1833 23.7703V6.45911H63.7592V13.5684H69.431V6.45911H73.0069V23.7703H69.431V16.731H63.7592V23.7703H60.1833Z" fill="#0E101A"/>
<path d="M56.8647 15.1147C56.8647 12.636 56.0425 10.5186 54.398 8.76246C52.7535 7.00632 50.6643 6.12825 48.1304 6.12825C45.5965 6.12825 43.5073 7.00632 41.8628 8.76246C40.2183 10.5186 39.3961 12.636 39.3961 15.1147C39.3961 17.5934 40.2183 19.7108 41.8628 21.467C43.5073 23.2231 45.5965 24.1012 48.1304 24.1012C50.6643 24.1012 52.7535 23.2231 54.398 21.467C56.0425 19.7108 56.8647 17.5934 56.8647 15.1147ZM48.1304 20.86C46.5509 20.86 45.2963 20.3228 44.3666 19.2483C43.4369 18.1738 42.9721 16.7909 42.9721 15.1147C42.9721 13.4385 43.4369 12.0556 44.3666 10.9811C45.2963 9.90659 46.5509 9.37562 48.1304 9.37562C49.7099 9.37562 50.9645 9.91289 51.8942 10.9811C52.8239 12.0556 53.2887 13.4385 53.2887 15.1147C53.2887 16.7909 52.8239 18.1738 51.8942 19.2483C50.9645 20.3228 49.7099 20.86 48.1304 20.86Z" fill="#0E101A"/>
<path d="M18.8413 0H15.2256L0 32H3.725L6.68582 25.541H18.9908L21.9516 32H25.6766L18.8413 0ZM12.8383 22.5115L15.9329 14.8643L18.9908 22.5115H12.8383Z" fill="#0E101A"/>
<path d="M84.717 6.45911V23.7703H81.1411V6.45911H84.717Z" fill="#0E101A"/>
<path d="M102.399 23.7703H98.835V9.48839L93.1077 23.7703H90.2526L84.5253 9.48839V23.7703H80.9494V6.45911H85.839L91.6817 18.2917L97.5244 6.45911H102.399V23.7703Z" fill="#0E101A"/>
<svg width="25" height="24" viewBox="0 0 25 24" fill="none" xmlns="http://www.w3.org/2000/svg">
<path d="M113.881 23.7703V6.45911H117.457V20.7302H127.352V23.7703H113.881Z" fill="#0E101A"/>
<path d="M129.213 6.45911L124.965 17.6186L120.716 6.45911H116.481L122.801 21.0855V23.7703H126.961V21.0855L133.282 6.45911H129.213Z" fill="#0E101A"/>
<path d="M140.232 23.7703V6.45911H143.808V23.7703H140.232Z" fill="#0E101A"/>
</svg>
<path d="M96.4833 23.7703V6.45911H100.059V13.5684H105.731V6.45911H109.307V23.7703H105.731V16.731H100.059V23.7703H96.4833Z" fill="#0E101A"/>
</svg> 