<svg viewBox="0 0 32 32" xmlns="http://www.w3.org/2000/svg">
  <!-- Back envelope layer -->
  <path d="M28 8H12c-1.1 0-2 .9-2 2v16c0 1.1.9 2 2 2h16c1.1 0 2-.9 2-2V10c0-1.1-.9-2-2-2z" fill="#0364B8"/>

  <!-- Middle envelope with gradient effect -->
  <path d="M10 8v16c0 1.1.9 2 2 2h16V10c0-1.1-.9-2-2-2H10z" fill="#0078D4"/>

  <!-- Front envelope flap -->
  <path d="M10 8l10 7 10-7v18H12c-1.1 0-2-.9-2-2V8z" fill="#28A8EA"/>
  <path d="M10 8h20l-10 7L10 8z" fill="#50D9FF"/>

  <!-- Outlook O icon overlay -->
  <rect x="4" y="10" width="14" height="14" rx="2" fill="#0A2767"/>
  <path d="M11 14c-1.7 0-3 1.3-3 3s1.3 3 3 3 3-1.3 3-3-1.3-3-3-3zm0 4.5c-.8 0-1.5-.7-1.5-1.5s.7-1.5 1.5-1.5 1.5.7 1.5 1.5-.7 1.5-1.5 1.5z" fill="#fff"/>
</svg>