<svg xmlns="http://www.w3.org/2000/svg" viewBox="0 0 48 48" width="48px" height="48px"><path fill="#0078d4" d="M11,4H37c1.657,0,3,1.343,3,3v34c0,1.657-1.343,3-3,3H11c-1.657,0-3-1.343-3-3V7C8,5.343,9.343,4,11,4z"/><path fill="#fff" d="M24.49,24.51c0,0-8.99-6.38-8.99-7.51s1.21-2.02,2.59-2.02s2.73,1,2.73,1l3.67,2.73l3.67-2.73c0,0,1.35-1,2.73-1s2.59,0.89,2.59,2.02S24.49,24.51,24.49,24.51z"/><path fill="#fff" d="M33.48,15.89c-1.38,0-2.73,1-2.73,1L24.49,22l-6.26-5.11c0,0-1.35-1-2.73-1s-2.59,0.89-2.59,2.02c0,1.13,8.99,7.51,8.99,7.51h0.28l8.71-7.51C36.07,16.78,34.86,15.89,33.48,15.89z"/><path fill="#0078d4" d="M24.49,24.51c0,0-8.99-6.38-8.99-7.51s1.21-2.02,2.59-2.02s2.73,1,2.73,1l3.67,2.73l3.67-2.73c0,0,1.35-1,2.73-1s2.59,0.89,2.59,2.02S24.49,24.51,24.49,24.51z"/><path fill="#fff" d="M33.48,15.89c-1.38,0-2.73,1-2.73,1L24.49,22l-6.26-5.11c0,0-1.35-1-2.73-1s-2.59,0.89-2.59,2.02c0,1.13,8.99,7.51,8.99,7.51h0.28l8.71-7.51C36.07,16.78,34.86,15.89,33.48,15.89z"/></svg> 