<svg xmlns="http://www.w3.org/2000/svg" viewBox="0 0 512 512"><path fill="#7719AA" d="M336.8 64H112.5c-27 0-48.8 22-48.8 49.2V403c0 27.2 21.8 49.2 48.8 49.2h275c27 0 48.8-22 48.8-49.2V160.4L336.8 64z"/><path fill="#fff" d="M333.3 64v100.5h100.2c-2.3-2.6-5.3-4.8-8-6.9l-85.3-85.3c-2.1-1.9-4.9-3.4-7-4.4l-1-1.2z"/><path fill="#A654D6" d="M333.3 164.5V64l-1.8.8-1.5.9-1.2 1-100.2 100.5-1.5 1.5-1 .7h107.2z"/><path fill="#fff" d="M224.5 174.5h-80.2v-25h80.2v25zm0 50h-80.2v-25h80.2v25zm0 50h-80.2v-25h80.2v25zm133.5 0H248.2v-25h109.8v25zm0-50H248.2v-25h109.8v25z"/></svg> 