<?xml version="1.0" encoding="UTF-8"?>
<svg width="64px" height="64px" viewBox="0 0 64 64" version="1.1" xmlns="http://www.w3.org/2000/svg">
    <g stroke="none" stroke-width="1" fill="none" fill-rule="evenodd">
        <rect fill="#003087" x="0" y="0" width="64" height="64" rx="12"/>
        <path d="M40,24 C40,21.8 38.2,20 36,20 L28,20 C25.8,20 24,21.8 24,24 L24,40 C24,42.2 25.8,44 28,44 L36,44 C38.2,44 40,42.2 40,40 L40,24 Z M32,28 C33.1,28 34,28.9 34,30 C34,31.1 33.1,32 32,32 C30.9,32 30,31.1 30,30 C30,28.9 30.9,28 32,28 Z" fill="#FFFFFF"/>
    </g>
</svg>
