<?xml version="1.0" encoding="UTF-8"?>
<svg width="64px" height="64px" viewBox="0 0 64 64" version="1.1" xmlns="http://www.w3.org/2000/svg">
    <g stroke="none" stroke-width="1" fill="none" fill-rule="evenodd">
        <rect fill="#4A154B" x="0" y="0" width="64" height="64" rx="12"/>
        <path d="M24,32 C24,33.1 23.1,34 22,34 L18,34 C16.9,34 16,33.1 16,32 C16,30.9 16.9,30 18,30 L22,30 C23.1,30 24,30.9 24,32 Z M32,24 C33.1,24 34,23.1 34,22 L34,18 C34,16.9 33.1,16 32,16 C30.9,16 30,16.9 30,18 L30,22 C30,23.1 30.9,24 32,24 Z M32,40 C30.9,40 30,40.9 30,42 L30,46 C30,47.1 30.9,48 32,48 C33.1,48 34,47.1 34,46 L34,42 C34,40.9 33.1,40 32,40 Z M40,32 C40,30.9 40.9,30 42,30 L46,30 C47.1,30 48,30.9 48,32 C48,33.1 47.1,34 46,34 L42,34 C40.9,34 40,33.1 40,32 Z" fill="#FFFFFF"/>
    </g>
</svg>
