<?xml version="1.0" encoding="UTF-8"?>
<svg width="64px" height="64px" viewBox="0 0 64 64" version="1.1" xmlns="http://www.w3.org/2000/svg">
    <g stroke="none" stroke-width="1" fill="none" fill-rule="evenodd">
        <rect fill="#635BFF" x="0" y="0" width="64" height="64" rx="12"/>
        <path d="M24,32 C24,29.8 25.8,28 28,28 L36,28 C38.2,28 40,29.8 40,32 C40,34.2 38.2,36 36,36 L28,36 C25.8,36 24,34.2 24,32 Z M32,40 C36.4,40 40,36.4 40,32 C40,27.6 36.4,24 32,24 C27.6,24 24,27.6 24,32 C24,36.4 27.6,40 32,40 Z" fill="#FFFFFF"/>
    </g>
</svg>
