<?xml version="1.0" encoding="UTF-8"?>
<svg width="64px" height="64px" viewBox="0 0 64 64" version="1.1" xmlns="http://www.w3.org/2000/svg">
    <g stroke="none" stroke-width="1" fill="none" fill-rule="evenodd">
        <rect fill="#010101" x="0" y="0" width="64" height="64" rx="12"/>
        <path d="M40,24.5 C41.2,25.3 42.6,25.8 44,25.8 L44,32 C44,38.6 38.6,44 32,44 C25.4,44 20,38.6 20,32 C20,25.4 25.4,20 32,20 C33.1,20 34.2,20.2 35.2,20.6 L35.2,28.2 C34.7,28.1 34.1,28 33.5,28 C30.5,28 28,30.5 28,33.5 C28,36.5 30.5,39 33.5,39 C36.5,39 39,36.5 39,33.5 L39,16 L44,16 L44,24.5 Z" fill="#FFFFFF"/>
    </g>
</svg>
