<?xml version="1.0" encoding="UTF-8"?>
<svg width="64px" height="64px" viewBox="0 0 64 64" version="1.1" xmlns="http://www.w3.org/2000/svg">
    <g stroke="none" stroke-width="1" fill="none" fill-rule="evenodd">
        <rect fill="#000000" x="0" y="0" width="64" height="64" rx="12"/>
        <path d="M40,12 L40,16 L36,16 L36,20 L40,20 L40,24 L44,24 L44,20 L48,20 L48,16 L44,16 L44,12 L40,12 Z M32,12 C23.2,12 16,19.2 16,28 C16,36.8 23.2,44 32,44 C40.8,44 48,36.8 48,28 C48,19.2 40.8,12 32,12 Z M32,40 C27.6,40 24,36.4 24,32 C24,27.6 27.6,24 32,24 C36.4,24 40,27.6 40,32 C40,36.4 36.4,40 32,40 Z" fill="#FFFFFF"/>
    </g>
</svg>
