<svg xmlns="http://www.w3.org/2000/svg" viewBox="0 0 24 24">
  <path fill="#ff0000" d="M23.498 6.186a2.992 2.992 0 0 0-2.122-2.136C19.505 3.545 12 3.545 12 3.545s-7.505 0-9.377.505A2.992 2.992 0 0 0 .502 6.186C0 8.07 0 12 0 12s0 3.93.502 5.814a2.992 2.992 0 0 0 2.121 2.136c1.872.505 9.377.505 9.377.505s7.505 0 9.377-.505a2.992 2.992 0 0 0 2.122-2.136C24 15.93 24 12 24 12s0-3.93-.502-5.814z"/>
  <path fill="#fff" d="M9.545 15.568V8.432L15.818 12l-6.273 3.568z"/>
  <circle cx="18" cy="6" r="2" fill="#fff"/>
  <path fill="#ff0000" d="M18 7a1 1 0 1 0 0-2 1 1 0 0 0 0 2z"/>
</svg> 