<svg xmlns="http://www.w3.org/2000/svg" viewBox="0 0 24 24" fill="none" stroke="currentColor" stroke-width="2" stroke-linecap="round" stroke-linejoin="round" class="lucide lucide-youtube-studio">
  <path d="M15.42 4.25A6.93 6.93 0 0 0 12 2.5a6.93 6.93 0 0 0-3.42 1.75" />
  <path d="M8.58 19.75A6.93 6.93 0 0 0 12 21.5a6.93 6.93 0 0 0 3.42-1.75" />
  <path d="M4.25 15.42A6.93 6.93 0 0 0 2.5 12a6.93 6.93 0 0 0 1.75-3.42" />
  <path d="M19.75 8.58A6.93 6.93 0 0 0 21.5 12a6.93 6.93 0 0 0-1.75 3.42" />
  <path d="m12 15-3-3 5.3-5.3a1 1 0 0 1 1.4 0l1.6 1.6a1 1 0 0 1 0 1.4Z" />
  <path d="M12 15h.01" />
  <path d="m12 15-3.515-3.515a2 2 0 0 1 0-2.828l1.06-1.06a2 2 0 0 1 2.829 0l3.515 3.515" />
  <path d="m7.93 12.07 3 3" />
</svg> 